<svg id="Layer_1" data-name="Layer 1" xmlns="http://www.w3.org/2000/svg" viewBox="0 0 389.41 460"><defs><style>.cls-1{fill:#fff;}</style></defs><g id="_250-paypal" data-name="250-paypal"><path class="cls-1" d="M250.59,271.87c68.56-.81,120.29-28.09,142.1-91.59C414.6,118.61,409,61.6,348.06,38,308.6,22.65,295.62,26.41,141.14,26.41a20.6,20.6,0,0,0-20.29,17.14L61.41,420.78a12.33,12.33,0,0,0,12.27,14.1h75.67c2,0,2.74-.71,3.05-2.54,4.15-25.66,18.26-116.44,21.8-135.92C180.09,264.77,206.56,272.59,250.59,271.87Z" transform="translate(-61.29 -26)"/><path class="cls-1" d="M423.43,150.46c-1.83-1.32-2.54-1.83-3.05,1.32a236.77,236.77,0,0,1-8.92,34.08C371,301.29,258.8,291.25,204,291.25c-6.19,0-10.25,3.35-11.06,9.53-22.92,142.41-27.49,172.13-27.49,172.13-1,7.21,3.55,13.09,10.75,13.09h64.41c8.73,0,15.93-6.39,17.65-15.11.71-5.48-1.11,6.18,14.61-92.61,4.66-22.32,14.5-20,29.72-20,72,0,128.21-29.22,145-113.91C454.16,209.09,452.23,172,423.43,150.46Z" transform="translate(-61.29 -26)"/></g></svg>